<mxfile host="app.diagrams.net" agent="Mozilla/5.0 (Windows NT 10.0; Win64; x64) AppleWebKit/537.36 (KHTML, like Gecko) Chrome/133.0.0.0 Safari/537.36" version="26.0.13">
  <diagram name="Page-1" id="rvszo2AwaI_2a9ssAYcK">
    <mxGraphModel dx="1434" dy="784" grid="1" gridSize="10" guides="1" tooltips="1" connect="1" arrows="1" fold="1" page="1" pageScale="1" pageWidth="827" pageHeight="1169" math="0" shadow="0">
      <root>
        <mxCell id="0" />
        <mxCell id="1" parent="0" />
        <mxCell id="KehCBfUnX_1g3-heXKs--3" value="&lt;h4&gt;It Works on My Machine:&lt;br&gt;Ubuntu&lt;/h4&gt;" style="rounded=0;whiteSpace=wrap;html=1;" vertex="1" parent="1">
          <mxGeometry x="40" y="260" width="111.5" height="80" as="geometry" />
        </mxCell>
        <mxCell id="KehCBfUnX_1g3-heXKs--1" value="" style="image;sketch=0;aspect=fixed;html=1;points=[];align=center;fontSize=12;image=img/lib/mscae/Docker.svg;" vertex="1" parent="1">
          <mxGeometry x="40" y="500" width="380" height="311.6" as="geometry" />
        </mxCell>
        <mxCell id="KehCBfUnX_1g3-heXKs--6" value="" style="edgeStyle=orthogonalEdgeStyle;rounded=0;orthogonalLoop=1;jettySize=auto;html=1;" edge="1" parent="1" source="KehCBfUnX_1g3-heXKs--4" target="KehCBfUnX_1g3-heXKs--3">
          <mxGeometry relative="1" as="geometry" />
        </mxCell>
        <mxCell id="KehCBfUnX_1g3-heXKs--4" value="" style="shape=image;html=1;verticalAlign=top;verticalLabelPosition=bottom;labelBackgroundColor=#ffffff;imageAspect=0;aspect=fixed;image=https://cdn2.iconfinder.com/data/icons/boxicons-logos/24/bxl-django-128.png;textShadow=0;" vertex="1" parent="1">
          <mxGeometry x="60" y="170" width="60" height="60" as="geometry" />
        </mxCell>
        <mxCell id="KehCBfUnX_1g3-heXKs--7" value="&lt;h4&gt;It Works Everywhere:&lt;br&gt;Mac&lt;/h4&gt;" style="rounded=0;whiteSpace=wrap;html=1;" vertex="1" parent="1">
          <mxGeometry x="270" y="260" width="111.5" height="80" as="geometry" />
        </mxCell>
        <mxCell id="KehCBfUnX_1g3-heXKs--8" value="" style="edgeStyle=orthogonalEdgeStyle;rounded=0;orthogonalLoop=1;jettySize=auto;html=1;" edge="1" parent="1" source="KehCBfUnX_1g3-heXKs--9" target="KehCBfUnX_1g3-heXKs--7">
          <mxGeometry relative="1" as="geometry" />
        </mxCell>
        <mxCell id="KehCBfUnX_1g3-heXKs--9" value="" style="shape=image;html=1;verticalAlign=top;verticalLabelPosition=bottom;labelBackgroundColor=#ffffff;imageAspect=0;aspect=fixed;image=https://cdn2.iconfinder.com/data/icons/boxicons-logos/24/bxl-django-128.png;textShadow=0;" vertex="1" parent="1">
          <mxGeometry x="290" y="170" width="60" height="60" as="geometry" />
        </mxCell>
        <mxCell id="KehCBfUnX_1g3-heXKs--10" value="" style="shape=actor;whiteSpace=wrap;html=1;" vertex="1" parent="1">
          <mxGeometry x="90" y="360" width="20" height="40" as="geometry" />
        </mxCell>
        <mxCell id="KehCBfUnX_1g3-heXKs--11" value="" style="shape=actor;whiteSpace=wrap;html=1;" vertex="1" parent="1">
          <mxGeometry x="310" y="360" width="20" height="40" as="geometry" />
        </mxCell>
      </root>
    </mxGraphModel>
  </diagram>
</mxfile>
